<svg xmlns="http://www.w3.org/2000/svg" width="50" height="50" viewBox="0 0 50 50">
  <g id="dribble-icon-white" transform="translate(-35 -133)">
    <path id="Icon_awesome-dribbble" data-name="Icon awesome-dribbble" d="M14.838.563A14.275,14.275,0,1,0,29.113,14.838,14.292,14.292,0,0,0,14.838.563Zm9.438,6.583a12.135,12.135,0,0,1,2.753,7.6,28.5,28.5,0,0,0-8.491-.392c-.331-.808-.644-1.519-1.072-2.4A16.242,16.242,0,0,0,24.276,7.146Zm-1.356-1.41a13.767,13.767,0,0,1-6.391,4.4A65.086,65.086,0,0,0,11.981,3a12.162,12.162,0,0,1,10.94,2.734ZM9.654,3.822a77.8,77.8,0,0,1,4.521,7.052A45.481,45.481,0,0,1,2.9,12.359,12.238,12.238,0,0,1,9.654,3.822ZM2.645,14.856c0-.125,0-.249.006-.373a44.979,44.979,0,0,0,12.532-1.735c.349.683.683,1.377.989,2.069A18.887,18.887,0,0,0,5.779,23.009,12.144,12.144,0,0,1,2.645,14.856Zm4.709,9.619c1.274-2.6,4.73-5.965,9.646-7.642a50.684,50.684,0,0,1,2.6,9.247,12.169,12.169,0,0,1-12.247-1.6Zm14.3.489a52.627,52.627,0,0,0-2.369-8.694,17.9,17.9,0,0,1,7.6.521,12.215,12.215,0,0,1-5.226,8.173Z" transform="translate(45.438 143.438)" fill="#fff" stroke="#fff" stroke-width="1"/>
    <g id="Ellipse_1" data-name="Ellipse 1" transform="translate(35 133)" fill="none" stroke="#fff" stroke-width="3">
      <circle cx="25" cy="25" r="25" stroke="none"/>
      <circle cx="25" cy="25" r="23.5" fill="none"/>
    </g>
  </g>
</svg>
