<svg xmlns="http://www.w3.org/2000/svg" width="50" height="50" viewBox="0 0 50 50">
  <g id="Group_7" data-name="Group 7" transform="translate(-175 -133)">
    <path id="Icon_awesome-linkedin-in" data-name="Icon awesome-linkedin-in" d="M4.477,20H.33V6.648H4.477ZM2.4,4.826A2.413,2.413,0,1,1,4.8,2.4,2.422,2.422,0,0,1,2.4,4.826ZM20,20H15.858V13.5c0-1.549-.031-3.536-2.156-3.536-2.156,0-2.486,1.683-2.486,3.424V20H7.074V6.648h3.977V8.469h.058a4.357,4.357,0,0,1,3.923-2.156c4.2,0,4.968,2.763,4.968,6.353V20Z" transform="translate(190 147.999)" stroke="#1f2235" stroke-width="1"/>
    <g id="Ellipse_1" data-name="Ellipse 1" transform="translate(175 133)" fill="none" stroke="#1f2235" stroke-width="3">
      <circle cx="25" cy="25" r="25" stroke="none"/>
      <circle cx="25" cy="25" r="23.5" fill="none"/>
    </g>
  </g>
</svg>
